<svg width="180" height="180" viewBox="0 0 180 180" fill="none" xmlns="http://www.w3.org/2000/svg">
  <rect width="180" height="180" rx="38" fill="#0E1320" />
  <rect x="18" y="18" width="144" height="144" rx="30" fill="#151C2B" stroke="#243042" stroke-width="4" />

  <g transform="translate(10 6)">
    <path
      d="M81 56C74.2 50 65.4 47 56 47C34.5 47 19 62.5 19 84C19 105.5 34.5 121 56 121C73.1 121 86.8 111.3 92 97.2V84H56V97H74.4C70.3 104.2 63.6 108 56 108C41.7 108 31 97.3 31 84C31 70.7 41.7 60 56 60C62.4 60 68.1 62.2 72.7 66.5L81 56Z"
      fill="#62D48C"
    />
    <path
      d="M106 47C84.5 47 69 62.5 69 84C69 105.5 84.5 121 106 121C123.1 121 136.8 111.3 142 97.2V84H106V97H124.4C120.3 104.2 113.6 108 106 108C91.7 108 81 97.3 81 84C81 70.7 91.7 60 106 60C112.4 60 118.1 62.2 122.7 66.5L131 56C124.2 50 115.4 47 106 47Z"
      fill="#F5F7FB"
    />
  </g>
</svg>
